#N canvas 43 126 1781 868 10;
#X obj 300 157 cnv 15 60 60 empty empty empty 20 12 0 14 -258113 -66577
0;
#X obj 266 302 cnv 15 60 60 empty empty empty 20 12 0 14 -258113 -66577
0;
#X obj 384 211 cnv 15 432 123 empty empty empty 20 12 0 14 -233017
-66577 0;
#X obj 2 90 cnv 15 212 234 empty empty empty 20 12 0 14 -233017 -66577
0;
#X obj 382 41 cnv 15 432 155 empty empty empty 20 12 0 14 -233017 -66577
0;
#X obj 18 129 bng 44 250 50 0 empty empty empty 17 7 0 10 -4034 -1
-1;
#X obj 281 313 osc~;
#X obj 281 336 *~;
#X obj 281 260 +~;
#X obj 314 167 osc~;
#X obj 314 190 *~;
#X floatatom 280 64 5 0 0 0 - - -, f 5;
#X text 277 42 Pitch;
#X obj 18 301 s gate;
#X msg 18 234 1;
#X msg 61 233 0;
#X obj 400 87 r gate;
#X floatatom 465 87 5 0 0 0 - - -, f 5;
#X floatatom 530 86 5 0 0 0 - - -, f 5;
#X floatatom 596 88 5 0 0 0 - - -, f 5;
#X floatatom 661 86 5 0 0 0 - - -, f 5;
#X floatatom 727 87 5 0 0 0 - - -, f 5;
#X text 463 65 peak;
#X text 526 65 attack;
#X text 594 65 decay;
#X text 657 66 sustain;
#X text 724 67 release;
#X obj 400 172 *~;
#X obj 451 157 hsl 128 15 0 5000 0 0 empty empty empty -2 -8 0 10 -257985
-1 -1 6600 1;
#X obj 314 110 * 3;
#X text 1 104 Create a gate from the bang:;
#X text 590 156 Modulation index;
#X text 391 215 Gain envelope;
#X text 266 285 Operator 1;
#X text 297 140 Operator 2;
#X text 66 300 And send it.;
#X obj 60 210 delay 333;
#X obj 400 255 r gate;
#X floatatom 465 255 5 0 0 0 - - -, f 5;
#X floatatom 530 254 5 0 0 0 - - -, f 5;
#X floatatom 596 256 5 0 0 0 - - -, f 5;
#X floatatom 661 254 5 0 0 0 - - -, f 5;
#X floatatom 727 255 5 0 0 0 - - -, f 5;
#X text 463 233 peak;
#X text 526 233 attack;
#X text 594 233 decay;
#X text 657 234 sustain;
#X text 724 235 release;
#X obj 272 396 dac~;
#X obj 400 126 adsr 1 0 200 30 600, f 55;
#X obj 400 294 adsr 1 0 200 30 600, f 55;
#X connect 5 0 14 0;
#X connect 5 0 36 0;
#X connect 6 0 7 0;
#X connect 7 0 48 0;
#X connect 7 0 48 1;
#X connect 8 0 6 0;
#X connect 9 0 10 0;
#X connect 10 0 8 1;
#X connect 11 0 8 0;
#X connect 11 0 29 0;
#X connect 14 0 13 0;
#X connect 15 0 13 0;
#X connect 16 0 49 0;
#X connect 17 0 49 1;
#X connect 18 0 49 2;
#X connect 19 0 49 3;
#X connect 20 0 49 4;
#X connect 21 0 49 5;
#X connect 27 0 10 1;
#X connect 28 0 27 1;
#X connect 29 0 9 0;
#X connect 36 0 15 0;
#X connect 37 0 50 0;
#X connect 38 0 50 1;
#X connect 39 0 50 2;
#X connect 40 0 50 3;
#X connect 41 0 50 4;
#X connect 42 0 50 5;
#X connect 49 0 27 0;
#X connect 50 0 7 1;
