#N canvas 2560 58 1920 1022 10;
#X obj 108 216 lop~;
#X obj 211 215 hip~;
#X obj 331 215 bp~, f 6;
#X obj 213 38 hsl 128 15 10 1000 0 0 empty empty empty -2 -8 0 10 -204786
-1 -1 1900 1;
#X floatatom 210 62 5 0 0 0 - - -, f 5;
#X obj 108 356 *~;
#X obj 211 355 *~;
#X obj 331 355 *~;
#X obj 326 119 hsl 128 15 10 10000 0 0 empty empty empty -2 -8 0 10
-204800 -1 -1 6150 1;
#X obj 123 292 select 0;
#X obj 226 291 select 1;
#X obj 347 291 select 2;
#X msg 123 321 1;
#X msg 226 320 1;
#X msg 347 320 1;
#X msg 167 322 0;
#X msg 271 322 0;
#X msg 392 321 0;
#X obj 443 222 vradio 15 1 0 3 empty empty empty 0 -8 0 10 -203904
-1 -1 0;
#X text 463 251 Bandpass;
#X text 463 235 Highpass;
#X text 463 219 Lowpass;
#X text 207 20 Oscillator Pitch;
#X floatatom 323 141 5 0 0 0 - - -, f 5;
#X text 321 99 Filter Cutoff/Center;
#X text 439 202 Filter Characteristic;
#X msg 364 191 5;
#X text 362 174 Quality;
#X text 10 18 Use different non-resonant filters with a band-limited
saw tooth., f 26;
#X obj 209 102 phasor~;
#X floatatom 443 299 5 0 0 0 - - -, f 5;
#X msg 573 34 0;
#X msg 616 36 1;
#X obj 578 110 line;
#X floatatom 578 130 5 0 0 0 - - -, f 5;
#X obj 578 91 pack \$1 1000;
#N canvas 498 382 1064 930 band-lim-saw 0;
#X obj 71 133 *~ 0.064;
#X obj 71 156 rpole~ 0.93538;
#X obj 71 179 *~ 0.00431;
#X obj 71 202 cpole~ 0.96559 0.05592;
#X obj 71 228 cpole~ 0.96559 -0.05592;
#X obj 71 251 *~ 0.125;
#X obj 71 274 rzero~ -1;
#X obj 71 297 rzero~ -1;
#X obj 71 320 rzero~ -1;
#X obj 70 105 phasor~;
#X obj 71 354 outlet~;
#X obj 70 80 inlet;
#X obj 200 119 block~ 1024 1 16;
#X text 62 24 comment;
#X connect 0 0 1 0;
#X connect 1 0 2 0;
#X connect 2 0 3 0;
#X connect 3 0 4 0;
#X connect 3 1 4 1;
#X connect 4 0 5 0;
#X connect 5 0 6 0;
#X connect 6 0 7 0;
#X connect 7 0 8 0;
#X connect 8 0 10 0;
#X connect 9 0 0 0;
#X connect 11 0 9 0;
#X restore 14 148 pd band-lim-saw;
#X obj 211 418 dac~ 1;
#X connect 0 0 5 0;
#X connect 1 0 6 0;
#X connect 2 0 7 0;
#X connect 3 0 4 0;
#X connect 4 0 29 0;
#X connect 5 0 37 0;
#X connect 6 0 37 0;
#X connect 7 0 37 0;
#X connect 8 0 23 0;
#X connect 9 0 12 0;
#X connect 9 1 15 0;
#X connect 10 0 13 0;
#X connect 10 1 16 0;
#X connect 11 0 14 0;
#X connect 11 1 17 0;
#X connect 12 0 5 1;
#X connect 13 0 6 1;
#X connect 14 0 7 1;
#X connect 15 0 5 1;
#X connect 16 0 6 1;
#X connect 17 0 7 1;
#X connect 18 0 9 0;
#X connect 18 0 10 0;
#X connect 18 0 11 0;
#X connect 18 0 30 0;
#X connect 23 0 2 1;
#X connect 23 0 1 1;
#X connect 23 0 0 1;
#X connect 26 0 2 2;
#X connect 29 0 0 0;
#X connect 29 0 1 0;
#X connect 29 0 2 0;
#X connect 31 0 35 0;
#X connect 32 0 35 0;
#X connect 33 0 34 0;
#X connect 35 0 33 0;
