#N canvas 669 199 1001 1138 10;
#X floatatom 335 170 7 0.01 1000 0 - - -, f 7;
#X obj 199 213 line~;
#X obj 335 214 line~;
#X obj 199 189 pack 0 30;
#X obj 335 192 pack 0 30;
#N canvas 1 119 450 300 band-lim-saw 0;
#X obj 71 133 *~ 0.064;
#X obj 71 156 rpole~ 0.93538;
#X obj 71 179 *~ 0.00431;
#X obj 71 202 cpole~ 0.96559 0.05592;
#X obj 71 228 cpole~ 0.96559 -0.05592;
#X obj 71 251 *~ 0.125;
#X obj 71 274 rzero~ -1;
#X obj 71 297 rzero~ -1;
#X obj 71 320 rzero~ -1;
#X obj 70 105 phasor~;
#X obj 71 354 outlet~;
#X obj 70 80 inlet;
#X obj 200 119 block~ 1024 1 16;
#X text 62 24 comment;
#X connect 0 0 1 0;
#X connect 1 0 2 0;
#X connect 2 0 3 0;
#X connect 3 0 4 0;
#X connect 3 1 4 1;
#X connect 4 0 5 0;
#X connect 5 0 6 0;
#X connect 6 0 7 0;
#X connect 7 0 8 0;
#X connect 8 0 10 0;
#X connect 9 0 0 0;
#X connect 11 0 9 0;
#X restore 43 194 pd band-lim-saw;
#X obj 200 30 vsl 15 128 10 10000 0 0 empty empty empty 0 -9 0 10 -204800
-1 -1 1319 1;
#X obj 43 28 vsl 15 128 1 1000 0 0 empty empty empty 0 -9 0 10 -204786
-1 -1 750 1;
#X obj 273 310 moog~, f 8;
#X obj 335 31 vsl 15 128 0 4 0 0 empty empty empty 0 -9 0 10 -262130
-1 -1 4300 1;
#X obj 405 291 vradio 15 1 0 2 empty empty empty 0 -8 0 10 -203904
-1 -1 0;
#X floatatom 43 164 5 0 0 0 - - -, f 5;
#X floatatom 200 166 5 0 0 0 - - -, f 5;
#X obj 65 429 *~;
#X obj 80 365 select 0;
#X msg 80 384 1;
#X msg 124 385 0;
#X text 424 288 8 Pole;
#X text 427 305 Moog;
#X obj 273 423 *~;
#X msg 288 378 1;
#X msg 332 379 0;
#X obj 288 359 select 1;
#X obj 182 491 dac~ 1;
#X text 11 7 Oscillator Pitch;
#X text 165 5 Filter Cutoff;
#X text 318 4 Filter Q;
#X text 334 479 Compare two resonant lowpass filters., f 21;
#X obj 65 313 vcf_lp8~;
#X connect 0 0 4 0;
#X connect 1 0 8 1;
#X connect 1 0 28 1;
#X connect 2 0 8 2;
#X connect 2 0 28 2;
#X connect 3 0 1 0;
#X connect 4 0 2 0;
#X connect 5 0 8 0;
#X connect 5 0 28 0;
#X connect 6 0 12 0;
#X connect 7 0 11 0;
#X connect 8 0 19 0;
#X connect 9 0 0 0;
#X connect 10 0 14 0;
#X connect 10 0 22 0;
#X connect 11 0 5 0;
#X connect 12 0 3 0;
#X connect 13 0 23 0;
#X connect 14 0 15 0;
#X connect 14 1 16 0;
#X connect 15 0 13 1;
#X connect 16 0 13 1;
#X connect 19 0 23 0;
#X connect 20 0 19 1;
#X connect 21 0 19 1;
#X connect 22 0 20 0;
#X connect 22 1 21 0;
#X connect 28 0 13 0;
